<svg width="107" height="34" viewBox="0 0 107 34" fill="none" xmlns="http://www.w3.org/2000/svg">
<path d="M15.7771 1.30032H20.9307L15.3147 25.4705H6.25089L0.634888 1.30032H5.78885L9.98333 21.2052H11.5826L15.7771 1.30032Z" fill="#0F172A"/>
<path d="M25.8446 18.6104C25.8682 19.7004 26.1525 20.4942 26.6975 20.9918C27.2662 21.4658 28.0719 21.7027 29.1147 21.7027C31.3183 21.7027 33.2852 21.6317 35.015 21.4895L36.0102 21.3829L36.0814 24.9019C33.3564 25.5653 30.8917 25.8971 28.688 25.8971C26.0106 25.8971 24.0673 25.1862 22.8589 23.7643C21.6502 22.3426 21.0461 20.0321 21.0461 16.8332C21.0461 10.4589 23.6646 7.27173 28.9012 7.27173C34.0669 7.27173 36.65 9.94941 36.65 15.3047L36.2945 18.6104H25.8446ZM31.9581 14.9849C31.9581 13.5631 31.7331 12.5797 31.2829 12.0347C30.8327 11.466 30.0388 11.1816 28.9012 11.1816C27.7876 11.1816 26.9937 11.4778 26.5198 12.0702C26.0696 12.6389 25.8328 13.6105 25.8089 14.9849H31.9581Z" fill="#0F172A"/>
<path d="M39.3433 25.4705V7.69826H44.0706V9.58211C46.0611 8.39729 47.9568 7.62716 49.7577 7.27173V12.0702C47.8381 12.4731 46.1912 12.8877 44.8169 13.3143L44.106 13.5631V25.4705H39.3433Z" fill="#0F172A"/>
<path d="M61.7028 11.7504H57.331V19.0369C57.331 19.7478 57.3428 20.2573 57.3667 20.5653C57.4139 20.8497 57.5445 21.0985 57.7576 21.3118C57.9947 21.525 58.3498 21.6317 58.824 21.6317L61.5255 21.5606L61.7386 25.364C60.1508 25.7194 58.9424 25.8972 58.1131 25.8972C55.9803 25.8972 54.523 25.423 53.7412 24.4753C52.9591 23.5036 52.5682 21.7264 52.5682 19.1436V11.7504H50.4708V7.69828H52.5682V2.7576H57.331V7.69828H61.7028V11.7504Z" fill="#0F172A"/>
<path d="M64.0935 25.4705V7.69829H68.8566V25.4705H64.0935ZM64.0935 5.42345V0.589417H68.8566V5.42345H64.0935Z" fill="#0F172A"/>
<path d="M88.6481 27.6742C88.6481 29.7122 87.866 31.2167 86.3021 32.1883C84.7383 33.16 82.6173 33.6456 79.9398 33.6456C77.2859 33.6456 75.2361 33.2902 73.7906 32.5792C72.3687 31.8683 71.6578 30.5769 71.6578 28.7052C71.6578 27.2121 72.511 25.802 74.2172 24.4753C73.3404 23.8827 72.9019 22.9822 72.9019 21.7739C72.9019 21.2999 73.2574 20.5179 73.9683 19.4279L74.288 18.9303C72.677 17.7692 71.8713 16.063 71.8713 13.8119C71.8713 11.5371 72.5464 9.89017 73.8972 8.87125C75.2715 7.85229 77.0842 7.34283 79.3354 7.34283C80.3543 7.34283 81.3617 7.46131 82.3569 7.69827L82.9255 7.80491L88.6481 7.62717V11.4304L85.9824 11.2172C86.5035 12.0228 86.7642 12.8285 86.7642 13.6342C86.7642 16.0038 86.1602 17.6388 84.9514 18.5393C83.743 19.4398 81.8473 19.89 79.2643 19.89C78.7193 19.89 78.2336 19.8426 77.807 19.7478C77.5702 20.3639 77.4515 20.8734 77.4515 21.2762C77.4515 21.6554 77.6532 21.916 78.0559 22.0582C78.4586 22.2004 79.4066 22.2833 80.8993 22.307C83.885 22.3307 85.9231 22.7335 87.0131 23.5154C88.1031 24.2739 88.6481 25.6601 88.6481 27.6742ZM76.3497 28.2074C76.3497 29.2262 77.5938 29.7358 80.0818 29.7358C82.5937 29.7358 83.8496 29.1432 83.8496 27.9585C83.8496 27.3187 83.6365 26.9042 83.2098 26.7147C82.7832 26.5487 81.8827 26.454 80.5084 26.43L77.3095 26.1815C76.6698 26.8212 76.3497 27.4964 76.3497 28.2074ZM76.634 13.6697C76.634 15.3996 77.5345 16.2645 79.3354 16.2645C81.16 16.2645 82.0723 15.3996 82.0723 13.6697C82.0723 11.9162 81.16 11.0394 79.3354 11.0394C77.5345 11.0394 76.634 11.9162 76.634 13.6697Z" fill="#0F172A"/>
<path d="M91.7822 9.72429C93.0382 8.08924 95.1352 7.27173 98.0738 7.27173C101.012 7.27173 103.109 8.08924 104.365 9.72429C105.621 11.3356 106.249 13.6105 106.249 16.5488C106.249 22.7809 103.524 25.8971 98.0738 25.8971C92.6237 25.8971 89.8987 22.7809 89.8987 16.5488C89.8987 13.6105 90.5267 11.3356 91.7822 9.72429ZM95.4435 20.5653C95.941 21.4184 96.8178 21.8449 98.0738 21.8449C99.3297 21.8449 100.194 21.4184 100.669 20.5653C101.166 19.7123 101.415 18.3734 101.415 16.5488C101.415 14.7242 101.166 13.3972 100.669 12.5678C100.194 11.7385 99.3297 11.3238 98.0738 11.3238C96.8178 11.3238 95.941 11.7385 95.4435 12.5678C94.9697 13.3972 94.7326 14.7242 94.7326 16.5488C94.7326 18.3734 94.9697 19.7123 95.4435 20.5653Z" fill="#0F172A"/>
</svg>
